<svg xmlns="http://www.w3.org/2000/svg" xmlns:xlink="http://www.w3.org/1999/xlink" width="300" height="63" viewBox="0 0 300 63">
  <defs>
    <path id="action-text-throw-b" d="M42.236,259.424 L36.188,226.448 L54.26,223.712 L52.892,207.728 L0.548,210.464 L2.42,231.56 L21.068,228.752 L21.5,261.224 L42.236,259.424 Z M110.348,259.64 L110.78,208.592 L89.972,209.744 L91.844,228.176 L79.604,228.176 L77.228,208.592 L56.636,212.192 L67.436,262.592 L83.492,259.928 L81.548,244.232 L93.212,241.424 L95.156,260.792 L110.348,259.64 Z M169.028,253.736 L150.092,262.376 L136.988,243.728 L137.204,259.568 L120.5,260.72 L116.396,209.816 L147.068,205.568 L166.148,218.816 L162.188,235.304 L153.62,241.136 L169.028,253.736 Z M146.06,232.784 L147.932,223.064 L136.556,219.536 L136.844,234.728 L146.06,232.784 Z M219.788,254.672 L198.476,263.96 L175.652,255.824 L170.756,231.128 L187.172,212.48 L208.844,215.432 L222.956,229.976 L219.788,254.672 Z M208.052,240.272 L201.644,228.752 L189.116,232.856 L189.332,244.808 L199.268,248.768 L208.052,240.272 Z M282.716,260.144 L295.604,220.472 L276.236,215.36 L270.332,239.912 L262.628,226.736 L252.548,238.544 L250.1,207.152 L226.556,210.968 L236.348,257.912 L253.772,259.928 L260.828,248.048 L265.796,261.296 L282.716,260.144 Z"/>
    <filter id="action-text-throw-a" width="102.7%" height="113.7%" x="-.7%" y="-3.4%" filterUnits="objectBoundingBox">
      <feOffset dx="4" dy="4" in="SourceAlpha" result="shadowOffsetOuter1"/>
      <feColorMatrix in="shadowOffsetOuter1" values="0 0 0 0 0   0 0 0 0 0   0 0 0 0 0  0 0 0 0.3 0"/>
    </filter>
  </defs>
  <g fill="none" fill-rule="evenodd" transform="translate(0 -205)">
    <use fill="#000" filter="url(#action-text-throw-a)" xlink:href="#action-text-throw-b"/>
    <use fill="#FFF" xlink:href="#action-text-throw-b"/>
  </g>
</svg>
