<svg xmlns="http://www.w3.org/2000/svg" xmlns:xlink="http://www.w3.org/1999/xlink" width="226" height="61" viewBox="0 0 226 61">
  <defs>
    <path id="action-text-2-b" d="M42.164,132.64 L11.564,135.304 L4.652,86.128 L31.364,79.936 L57.644,94.84 L55.556,118.528 L42.164,132.64 Z M37.7,117.592 L40.508,102.976 L25.604,97.36 L27.692,121.48 L37.7,117.592 Z M113.516,132.712 L95.228,134.656 L93.14,123.568 L80.54,124.792 L78.596,134.368 L61.316,130.696 L75.212,85.408 L100.124,88.936 L113.516,132.712 Z M91.124,112.552 L88.82,100.888 L85.508,100.456 L83.204,111.688 L91.124,112.552 Z M158.948,132.352 L169.244,112.624 L140.66,98.656 L144.188,92.824 L159.02,101.968 L166.364,88.072 L149.084,79.36 L126.764,83.248 L116.54,101.176 L144.476,114.568 L140.156,120.832 L123.668,110.608 L115.82,123.568 L133.172,134.872 L158.948,132.352 Z M225.116,132.64 L225.548,81.592 L204.74,82.744 L206.612,101.176 L194.372,101.176 L191.996,81.592 L171.404,85.192 L182.204,135.592 L198.26,132.928 L196.316,117.232 L207.98,114.424 L209.924,133.792 L225.116,132.64 Z"/>
    <filter id="action-text-2-a" width="103.6%" height="114.2%" x="-.9%" y="-3.6%" filterUnits="objectBoundingBox">
      <feOffset dx="4" dy="4" in="SourceAlpha" result="shadowOffsetOuter1"/>
      <feColorMatrix in="shadowOffsetOuter1" values="0 0 0 0 0   0 0 0 0 0   0 0 0 0 0  0 0 0 0.3 0"/>
    </filter>
  </defs>
  <g fill="none" fill-rule="evenodd" transform="translate(-4 -79)">
    <use fill="#000" filter="url(#action-text-2-a)" xlink:href="#action-text-2-b"/>
    <use fill="#FFF" xlink:href="#action-text-2-b"/>
  </g>
</svg>
