<?xml version="1.0" encoding="utf-8"?>
<!-- Generator: Adobe Illustrator 16.0.4, SVG Export Plug-In . SVG Version: 6.00 Build 0)  -->
<!DOCTYPE svg PUBLIC "-//W3C//DTD SVG 1.1//EN" "http://www.w3.org/Graphics/SVG/1.1/DTD/svg11.dtd">
<svg version="1.1" id="Layer_1" xmlns="http://www.w3.org/2000/svg" xmlns:xlink="http://www.w3.org/1999/xlink" x="0px" y="0px"
	 width="58.496px" height="38.632px" viewBox="0 0 58.496 38.632" enable-background="new 0 0 58.496 38.632" xml:space="preserve">
<g>
	<g>
		<path d="M58.496,0v38.632H0V0H58.496"/>
	</g>
</g>
<g>
	<g>
		<rect x="2.069" y="10.795" fill="#FFFFFF" width="54.365" height="19.548"/>
	</g>
</g>
<g>
	<g>
		<rect x="2.069" y="2.092" fill="#FFFFFF" width="54.344" height="6.635"/>
	</g>
</g>
<g>
	<g>
		<path d="M53.49,27.62v0.223h-0.476v1.5h-0.28v-1.5h-0.476V27.62H53.49z M55.431,29.343h-0.28v-1.357h-0.008l-0.48,1.357h-0.228
			l-0.456-1.357h-0.008v1.357h-0.28V27.62h0.444l0.432,1.281h0.008l0.42-1.281h0.437V29.343z"/>
	</g>
</g>
<g>
	<g>
		<polygon fill="#FFFFFF" points="2.079,36.603 2.079,32.495 7.435,32.495 7.435,33.456 4.229,33.456 4.229,34.044 6.941,34.044 
			6.941,35.001 4.229,35.001 4.229,35.644 7.559,35.644 7.559,36.603 		"/>
	</g>
	<g>
		<path fill="#FFFFFF" d="M12.108,33.692c-0.033-0.139-0.154-0.229-0.311-0.279c-0.152-0.053-0.343-0.076-0.556-0.076
			c-0.474,0-0.685,0.088-0.685,0.24c0,0.607,3.777,0.227,3.777,1.721c0,0.951-1.271,1.416-3.074,1.416
			c-1.732,0-2.863-0.635-2.908-1.375h2.06c0.046,0.148,0.174,0.252,0.356,0.322c0.174,0.068,0.398,0.104,0.613,0.104
			c0.537,0,0.895-0.107,0.895-0.301c0-0.623-3.779-0.195-3.779-1.76c0-0.873,1.205-1.311,2.848-1.311c1.822,0,2.653,0.58,2.81,1.299
			H12.108z"/>
	</g>
	<g>
		<path fill="#FFFFFF" d="M17.556,34.276h0.846c0.666,0,1.023-0.107,1.023-0.391c0-0.289-0.363-0.43-0.867-0.43h-1.002V34.276z
			 M17.556,35.171v1.432h-2.152v-4.107h3.102c2.188,0,2.906,0.375,2.906,1.174c0,0.475-0.334,0.869-1.101,1.008
			c0.691,0.156,1.112,0.254,1.112,1.082c0,0.535-0.029,0.719,0.227,0.719v0.125h-2.182c-0.053-0.092-0.107-0.354-0.107-0.717
			c0-0.541-0.146-0.715-1.148-0.715H17.556z"/>
	</g>
	<g>
		<path fill="#FFFFFF" d="M24.885,33.456v0.688h0.896c0.429,0,0.741-0.123,0.741-0.359c0-0.32-0.424-0.328-0.877-0.328H24.885z
			 M24.885,34.888v0.756h0.938c0.534,0,0.934-0.068,0.934-0.375c0-0.359-0.5-0.381-1.188-0.381H24.885z M22.735,36.603v-4.107h3.139
			c1.479,0,2.653,0.223,2.653,1.035c0,0.424-0.438,0.732-0.856,0.893c0.71,0.115,1.091,0.5,1.091,0.941
			c0,0.916-1.118,1.238-2.826,1.238H22.735z"/>
	</g>
</g>
<g>
	<g>
		<g>
			<polygon points="30.915,20.89 30.362,18.949 26.773,19.871 27.325,21.813 			"/>
		</g>
	</g>
	<g>
		<g>
			<path d="M41.121,25.476h-0.811v0.445h0.811v0.783h0.458v-0.783h0.812v-0.445h-0.812V24.69h-0.458V25.476z M39.83,25.278
				c0-1.564-0.841-2.488-2.233-2.488c-1.884,0-2.347,1.281-2.347,2.488c0,1.471,0.739,2.486,2.29,2.486
				C39.087,27.765,39.83,26.749,39.83,25.278 M31.945,15.35l11.394-3.393l1.143,3.598l-5.708,1.697l0.469,1.471l5.272-1.568
				l1.14,3.601l-5.27,1.562l0.492,1.551l5.895-1.756l1.144,3.596l-11.58,3.447L31.945,15.35 M32.379,24.446
				c0.557-0.162,1.114-0.398,1.415-0.682v3.764h1.071v-4.717h-1.042c-0.395,0.334-0.797,0.523-1.444,0.723V24.446"/>
		</g>
		<g>
			<path d="M36.233,25.233c0.007-1.576,0.635-1.943,1.354-1.939c0.803,0.004,1.259,0.602,1.254,1.984
				c-0.004,0.859-0.238,1.92-1.267,1.912C36.565,27.187,36.227,26.384,36.233,25.233"/>
		</g>
	</g>
	<polyline points="10.237,15.35 21.632,11.959 22.773,15.555 17.065,17.252 17.534,18.723 22.807,17.154 23.946,20.755 
		18.676,22.319 19.169,23.868 25.062,22.114 26.207,25.708 14.627,29.155 10.237,15.35 	"/>
</g>
<g>
	<path d="M2.841,7.679V2.961h1.564v0.726H3.44V4.85h0.889v0.725H3.44v1.379h0.996v0.726H2.841z"/>
	<path d="M4.597,2.961H5.22l0.444,3.431h0.008l0.501-3.431h0.591L6.005,7.679H5.303L4.597,2.961z"/>
	<path d="M7.034,7.679V2.961h1.564v0.726H7.634V4.85h0.889v0.725H7.634v1.379H8.63v0.726H7.034z"/>
	<path d="M9.606,7.679h-0.6V2.961h1.107c0.207,0,0.37,0.105,0.49,0.314c0.121,0.209,0.182,0.516,0.182,0.921
		c0,0.3-0.041,0.556-0.121,0.765c-0.082,0.209-0.219,0.34-0.412,0.392v0.013c0.032,0.01,0.077,0.022,0.136,0.039
		c0.058,0.018,0.116,0.057,0.173,0.118s0.105,0.151,0.148,0.271s0.063,0.286,0.063,0.499c0,0.074,0.001,0.18,0.002,0.314
		s0.005,0.273,0.011,0.418c0.004,0.144,0.012,0.276,0.021,0.398c0.009,0.122,0.02,0.207,0.033,0.255h-0.588
		c-0.039-0.144-0.06-0.294-0.061-0.45C10.19,7.071,10.19,6.916,10.19,6.764c0-0.139-0.001-0.271-0.002-0.398
		c-0.002-0.126-0.016-0.236-0.04-0.33c-0.025-0.094-0.067-0.168-0.128-0.225c-0.059-0.057-0.146-0.086-0.26-0.086H9.606V7.679z
		 M9.606,5h0.266c0.059,0,0.107-0.021,0.146-0.065c0.041-0.044,0.072-0.099,0.096-0.167c0.023-0.067,0.041-0.143,0.05-0.225
		c0.009-0.083,0.015-0.162,0.015-0.236c0-0.226-0.027-0.386-0.082-0.479S9.968,3.687,9.872,3.687H9.606V5z"/>
	<path d="M11.694,6.045l-0.75-3.084H11.6l0.429,1.993l0.457-1.993h0.611l-0.803,3.084v1.634h-0.6V6.045z"/>
	<path d="M14.335,7.758c-0.246,0-0.437-0.069-0.572-0.207c-0.135-0.137-0.232-0.32-0.293-0.549s-0.098-0.488-0.107-0.78
		c-0.011-0.292-0.016-0.593-0.016-0.901c0-0.314,0.005-0.617,0.016-0.908c0.01-0.292,0.047-0.551,0.107-0.777
		s0.158-0.408,0.293-0.546c0.136-0.138,0.326-0.206,0.572-0.206s0.437,0.068,0.572,0.206c0.135,0.138,0.232,0.319,0.293,0.546
		s0.097,0.485,0.107,0.777c0.011,0.291,0.016,0.594,0.016,0.908c0,0.309-0.005,0.609-0.016,0.901s-0.047,0.552-0.107,0.78
		s-0.158,0.412-0.293,0.549C14.771,7.688,14.581,7.758,14.335,7.758z M14.335,7.051c0.084,0,0.152-0.033,0.203-0.101
		c0.05-0.067,0.088-0.171,0.115-0.311c0.025-0.14,0.043-0.319,0.051-0.539s0.012-0.479,0.012-0.78s-0.004-0.561-0.012-0.781
		C14.696,4.319,14.679,4.14,14.653,4c-0.027-0.139-0.065-0.242-0.115-0.311c-0.051-0.066-0.119-0.102-0.203-0.102
		c-0.085,0-0.152,0.035-0.203,0.102C14.082,3.758,14.044,3.861,14.018,4c-0.026,0.14-0.044,0.319-0.052,0.539
		c-0.008,0.221-0.012,0.48-0.012,0.781s0.004,0.561,0.012,0.78S13.991,6.5,14.018,6.64s0.064,0.243,0.114,0.311
		C14.183,7.018,14.25,7.051,14.335,7.051z"/>
	<path d="M15.804,7.679V2.961h0.811l0.762,3.268h0.008V2.961h0.561v4.718h-0.791l-0.781-3.45h-0.008v3.45H15.804z"/>
	<path d="M18.448,7.679V2.961h1.564v0.726h-0.965V4.85h0.889v0.725h-0.889v1.379h0.996v0.726H18.448z"/>
	<path d="M21.061,4.379h0.226V3.856l0.561-0.411v0.934h0.289v0.568h-0.289v1.765c0,0.062,0,0.117,0.002,0.169
		c0.002,0.053,0.008,0.097,0.018,0.131c0.011,0.035,0.029,0.062,0.054,0.082c0.025,0.02,0.061,0.029,0.105,0.029
		c0.019,0,0.036,0,0.054,0s0.032-0.004,0.045-0.013v0.568c-0.037,0.009-0.077,0.017-0.121,0.022c-0.043,0.007-0.1,0.01-0.168,0.01
		c-0.122,0-0.219-0.027-0.29-0.084s-0.126-0.125-0.165-0.203c-0.038-0.078-0.063-0.158-0.075-0.242
		c-0.012-0.082-0.019-0.15-0.019-0.202V4.947h-0.226V4.379z"/>
	<path d="M23.161,7.744c-0.18,0-0.324-0.043-0.433-0.131c-0.108-0.087-0.191-0.208-0.249-0.362c-0.057-0.155-0.094-0.34-0.11-0.556
		c-0.018-0.215-0.026-0.451-0.026-0.709c0-0.227,0.008-0.441,0.024-0.644c0.016-0.202,0.052-0.38,0.106-0.532
		c0.057-0.152,0.139-0.273,0.246-0.363c0.109-0.089,0.256-0.133,0.441-0.133s0.332,0.044,0.44,0.133
		c0.108,0.09,0.19,0.211,0.247,0.363c0.055,0.152,0.091,0.33,0.106,0.532c0.017,0.202,0.024,0.417,0.024,0.644
		c0,0.258-0.01,0.494-0.026,0.709c-0.017,0.216-0.054,0.4-0.111,0.556c-0.057,0.154-0.14,0.275-0.248,0.362
		C23.485,7.701,23.341,7.744,23.161,7.744z M23.161,7.156c0.051,0,0.092-0.017,0.127-0.049c0.034-0.033,0.061-0.094,0.08-0.184
		c0.018-0.089,0.031-0.213,0.039-0.372s0.012-0.364,0.012-0.618c0-0.17-0.002-0.319-0.006-0.45S23.397,5.244,23.38,5.16
		c-0.02-0.085-0.045-0.149-0.08-0.193c-0.034-0.043-0.08-0.064-0.139-0.064c-0.061,0-0.107,0.021-0.141,0.064
		c-0.033,0.044-0.06,0.108-0.078,0.193c-0.018,0.084-0.029,0.192-0.033,0.323s-0.006,0.28-0.006,0.45
		c0,0.254,0.004,0.459,0.012,0.618s0.021,0.283,0.039,0.372c0.02,0.09,0.045,0.15,0.078,0.184
		C23.065,7.14,23.108,7.156,23.161,7.156z"/>
	<path d="M25.284,7.679V2.961h1.564v0.726h-0.965V4.85h0.89v0.725h-0.89v1.379h0.997v0.726H25.284z"/>
	<path d="M27.04,2.961h0.623l0.445,3.431h0.008l0.5-3.431h0.592l-0.759,4.718h-0.702L27.04,2.961z"/>
	<path d="M29.478,7.679V2.961h1.564v0.726h-0.965V4.85h0.889v0.725h-0.889v1.379h0.996v0.726H29.478z"/>
	<path d="M32.05,7.679h-0.6V2.961h1.107c0.207,0,0.371,0.105,0.491,0.314s0.181,0.516,0.181,0.921c0,0.3-0.041,0.556-0.121,0.765
		c-0.081,0.209-0.218,0.34-0.411,0.392v0.013c0.032,0.01,0.077,0.022,0.136,0.039c0.058,0.018,0.115,0.057,0.172,0.118
		s0.106,0.151,0.148,0.271c0.043,0.12,0.064,0.286,0.064,0.499c0,0.074,0,0.18,0.002,0.314s0.004,0.273,0.01,0.418
		c0.006,0.144,0.012,0.276,0.021,0.398s0.021,0.207,0.033,0.255h-0.587c-0.04-0.144-0.06-0.294-0.062-0.45
		c-0.002-0.157-0.002-0.312-0.002-0.465c0-0.139,0-0.271-0.002-0.398c-0.002-0.126-0.015-0.236-0.039-0.33
		c-0.025-0.094-0.068-0.168-0.128-0.225s-0.146-0.086-0.26-0.086H32.05V7.679z M32.05,5h0.266c0.059,0,0.107-0.021,0.147-0.065
		s0.071-0.099,0.095-0.167c0.024-0.067,0.041-0.143,0.051-0.225c0.009-0.083,0.014-0.162,0.014-0.236
		c0-0.226-0.027-0.386-0.082-0.479c-0.054-0.094-0.129-0.141-0.225-0.141H32.05V5z"/>
	<path d="M34.139,6.045l-0.751-3.084h0.655l0.429,1.993l0.457-1.993h0.611l-0.802,3.084v1.634h-0.6V6.045z"/>
	<path d="M36.779,7.758c-0.246,0-0.437-0.069-0.571-0.207c-0.136-0.137-0.233-0.32-0.294-0.549c-0.062-0.229-0.097-0.488-0.107-0.78
		s-0.016-0.593-0.016-0.901c0-0.314,0.005-0.617,0.016-0.908c0.011-0.292,0.046-0.551,0.107-0.777
		c0.061-0.227,0.158-0.408,0.294-0.546c0.135-0.138,0.325-0.206,0.571-0.206s0.437,0.068,0.571,0.206
		c0.136,0.138,0.233,0.319,0.294,0.546c0.062,0.227,0.097,0.485,0.107,0.777c0.011,0.291,0.016,0.594,0.016,0.908
		c0,0.309-0.005,0.609-0.016,0.901s-0.046,0.552-0.107,0.78c-0.061,0.229-0.158,0.412-0.294,0.549
		C37.216,7.688,37.025,7.758,36.779,7.758z M36.779,7.051c0.085,0,0.152-0.033,0.202-0.101c0.051-0.067,0.089-0.171,0.115-0.311
		s0.044-0.319,0.052-0.539s0.012-0.479,0.012-0.78s-0.004-0.561-0.012-0.781C37.141,4.319,37.123,4.14,37.097,4
		c-0.026-0.139-0.064-0.242-0.115-0.311c-0.05-0.066-0.117-0.102-0.202-0.102s-0.152,0.035-0.202,0.102
		C36.526,3.758,36.488,3.861,36.462,4c-0.026,0.14-0.044,0.319-0.052,0.539c-0.008,0.221-0.012,0.48-0.012,0.781
		s0.004,0.561,0.012,0.78S36.436,6.5,36.462,6.64s0.064,0.243,0.115,0.311C36.627,7.018,36.694,7.051,36.779,7.051z"/>
	<path d="M38.248,7.679V2.961h0.811l0.762,3.268h0.008V2.961h0.561v4.718h-0.79l-0.782-3.45h-0.009v3.45H38.248z"/>
	<path d="M40.892,7.679V2.961h1.564v0.726h-0.965V4.85h0.89v0.725h-0.89v1.379h0.997v0.726H40.892z"/>
	<path d="M43.703,3.824c0.101-0.092,0.197-0.194,0.29-0.308s0.175-0.246,0.246-0.398h0.532v4.561h-0.6V4.17
		c-0.071,0.101-0.146,0.191-0.227,0.274c-0.079,0.083-0.16,0.161-0.242,0.235V3.824z"/>
	<path d="M46.153,3.059c0.169,0,0.307,0.04,0.412,0.118c0.106,0.079,0.188,0.21,0.244,0.392c0.058,0.184,0.096,0.424,0.115,0.719
		c0.021,0.297,0.03,0.662,0.03,1.098c0,0.357-0.007,0.682-0.021,0.971c-0.013,0.29-0.047,0.537-0.101,0.742
		c-0.055,0.204-0.135,0.362-0.242,0.473c-0.107,0.111-0.254,0.167-0.438,0.167c-0.188,0-0.335-0.056-0.441-0.167
		c-0.105-0.11-0.186-0.269-0.24-0.473c-0.054-0.205-0.088-0.452-0.101-0.742c-0.014-0.289-0.021-0.613-0.021-0.971
		c0-0.436,0.01-0.801,0.03-1.098c0.02-0.295,0.058-0.535,0.115-0.719c0.057-0.182,0.138-0.312,0.242-0.392
		C45.843,3.099,45.98,3.059,46.153,3.059z M46.153,3.726c-0.062,0-0.107,0.022-0.14,0.065c-0.031,0.043-0.056,0.125-0.071,0.245
		s-0.025,0.288-0.027,0.507c-0.003,0.217-0.004,0.502-0.004,0.855c0,0.344,0.002,0.625,0.006,0.843s0.015,0.388,0.031,0.51
		c0.018,0.122,0.042,0.206,0.073,0.251c0.032,0.047,0.076,0.069,0.132,0.069c0.055,0,0.099-0.022,0.131-0.069
		c0.031-0.045,0.056-0.129,0.073-0.251s0.027-0.292,0.031-0.51c0.005-0.218,0.007-0.499,0.007-0.843
		c0-0.354-0.002-0.639-0.004-0.855c-0.003-0.219-0.013-0.387-0.028-0.507s-0.04-0.202-0.073-0.245S46.211,3.726,46.153,3.726z"/>
	<path d="M47.809,3.879h0.44v1.287h0.671v0.726h-0.671v1.287h-0.44V5.892h-0.675V5.166h0.675V3.879z"/>
</g>
<g>
	<g>
		<path fill="#FFFFFF" d="M35.27,36.689c-0.411,0-0.733-0.14-0.96-0.416c-0.261-0.313-0.394-0.76-0.394-1.324
			c0-0.556,0.133-1.008,0.396-1.343c0.227-0.288,0.524-0.434,0.885-0.434c0.398,0,0.716,0.149,0.944,0.444
			c0.256,0.331,0.386,0.823,0.386,1.464l-0.004,0.148h-1.777c0.01,0.224,0.064,0.398,0.162,0.521
			c0.104,0.131,0.224,0.194,0.367,0.194c0.204,0,0.339-0.141,0.41-0.429l0.012-0.047l0.807,0.164l-0.016,0.052
			c-0.097,0.336-0.251,0.591-0.458,0.756C35.822,36.605,35.566,36.689,35.27,36.689z M34.757,34.602h0.963
			c-0.013-0.218-0.063-0.384-0.151-0.494c-0.094-0.117-0.201-0.175-0.328-0.175c-0.135,0-0.246,0.06-0.341,0.182
			C34.81,34.231,34.762,34.396,34.757,34.602z"/>
	</g>
	<g>
		<path fill="#FFFFFF" d="M38.408,36.689c-0.357,0-0.654-0.09-0.882-0.268c-0.229-0.178-0.382-0.438-0.454-0.776l-0.011-0.051
			l0.051-0.009l0.762-0.143l0.009,0.05c0.059,0.317,0.23,0.473,0.525,0.473c0.158,0,0.277-0.03,0.353-0.088
			c0.072-0.057,0.107-0.127,0.107-0.216c0-0.06-0.015-0.104-0.043-0.136c-0.021-0.022-0.076-0.058-0.208-0.092
			c-0.599-0.159-0.969-0.308-1.134-0.453c-0.207-0.184-0.312-0.438-0.312-0.755s0.103-0.575,0.306-0.767
			c0.201-0.19,0.496-0.287,0.876-0.287c0.363,0,0.643,0.072,0.833,0.214c0.191,0.142,0.327,0.373,0.404,0.688l0.012,0.05
			l-0.769,0.172l-0.011-0.049c-0.055-0.238-0.204-0.354-0.457-0.354c-0.163,0-0.279,0.022-0.345,0.067
			c-0.061,0.041-0.09,0.091-0.09,0.154c0,0.055,0.026,0.1,0.081,0.138c0.044,0.031,0.187,0.095,0.617,0.216
			c0.41,0.116,0.682,0.253,0.832,0.42c0.148,0.166,0.223,0.39,0.223,0.663c0,0.328-0.114,0.604-0.341,0.817
			S38.801,36.689,38.408,36.689z"/>
	</g>
	<g>
		<path fill="#FFFFFF" d="M41.302,36.612H40.49v-3.363h0.76v0.322c0.08-0.133,0.153-0.225,0.223-0.28
			c0.098-0.078,0.213-0.118,0.342-0.118c0.174,0,0.341,0.058,0.495,0.172l0.028,0.021l-0.252,0.858l-0.059-0.047
			c-0.205-0.164-0.39-0.168-0.529-0.035c-0.066,0.064-0.116,0.188-0.147,0.368c-0.031,0.189-0.048,0.541-0.048,1.044V36.612z"/>
	</g>
	<g>
		<path fill="#FFFFFF" d="M44.366,36.689c-0.162,0-0.325-0.051-0.482-0.151c-0.114-0.072-0.217-0.169-0.306-0.288v0.362h-0.76
			v-4.604h0.812v1.524c0.088-0.1,0.183-0.181,0.283-0.239c0.137-0.08,0.287-0.12,0.446-0.12c0.331,0,0.614,0.15,0.843,0.447
			c0.225,0.293,0.338,0.728,0.338,1.292c0,0.562-0.116,1.003-0.346,1.31C44.962,36.532,44.683,36.689,44.366,36.689z M44.167,33.933
			c-0.149,0-0.273,0.072-0.379,0.22c-0.108,0.15-0.164,0.389-0.164,0.708c0,0.273,0.026,0.484,0.078,0.626
			c0.049,0.139,0.12,0.245,0.212,0.316c0.091,0.07,0.183,0.104,0.281,0.104c0.14,0,0.258-0.073,0.359-0.224
			c0.104-0.153,0.158-0.405,0.158-0.747c0-0.359-0.054-0.621-0.159-0.777C44.45,34.007,44.323,33.933,44.167,33.933z"/>
	</g>
	<g>
		<path fill="#FFFFFF" d="M47.144,36.612h-0.81v-0.963h0.81V36.612z"/>
	</g>
	<g>
		<path fill="#FFFFFF" d="M49.364,36.689c-0.412,0-0.759-0.159-1.032-0.473c-0.27-0.312-0.406-0.761-0.406-1.332
			c0-0.327,0.065-0.628,0.196-0.896c0.13-0.27,0.305-0.476,0.518-0.612c0.213-0.136,0.455-0.204,0.722-0.204
			c0.446,0,0.803,0.177,1.059,0.526c0.252,0.345,0.38,0.753,0.38,1.213c0,0.343-0.066,0.656-0.198,0.933
			c-0.131,0.277-0.307,0.49-0.523,0.632C49.862,36.618,49.622,36.689,49.364,36.689z M49.359,33.976
			c-0.163,0-0.302,0.077-0.422,0.236c-0.122,0.161-0.184,0.403-0.184,0.719c0,0.318,0.062,0.561,0.185,0.721
			c0.121,0.157,0.262,0.234,0.431,0.234c0.164,0,0.302-0.077,0.421-0.236c0.12-0.159,0.182-0.403,0.182-0.725
			c0-0.312-0.062-0.552-0.185-0.713C49.665,34.053,49.525,33.976,49.359,33.976z"/>
	</g>
	<g>
		<path fill="#FFFFFF" d="M52.356,36.612h-0.812v-3.363h0.76v0.322c0.08-0.133,0.153-0.225,0.223-0.28
			c0.098-0.078,0.213-0.118,0.342-0.118c0.174,0,0.341,0.058,0.495,0.172l0.028,0.021l-0.252,0.858l-0.059-0.047
			c-0.206-0.164-0.391-0.168-0.529-0.035c-0.066,0.064-0.116,0.188-0.147,0.368c-0.031,0.189-0.048,0.541-0.048,1.044V36.612z"/>
	</g>
	<g>
		<path fill="#FFFFFF" d="M55.141,37.937c-0.3,0-0.544-0.04-0.727-0.12c-0.186-0.082-0.33-0.206-0.429-0.37
			c-0.098-0.161-0.147-0.35-0.147-0.562V36.72l0.057,0.008l0.854,0.126l0.004,0.039c0.012,0.105,0.042,0.178,0.095,0.22
			c0.054,0.043,0.144,0.064,0.267,0.064c0.146,0,0.266-0.024,0.355-0.071c0.058-0.031,0.104-0.085,0.135-0.16
			c0.034-0.079,0.052-0.226,0.052-0.435v-0.312c-0.087,0.115-0.182,0.208-0.283,0.274c-0.142,0.093-0.3,0.14-0.472,0.14
			c-0.313,0-0.58-0.143-0.794-0.423c-0.24-0.315-0.361-0.745-0.361-1.278c0-0.566,0.115-1.002,0.343-1.293
			c0.229-0.296,0.513-0.445,0.843-0.445c0.177,0,0.339,0.048,0.482,0.142c0.104,0.067,0.201,0.161,0.289,0.278v-0.344h0.766v2.979
			c0,0.474-0.044,0.823-0.133,1.039c-0.091,0.221-0.232,0.39-0.421,0.502C55.728,37.88,55.468,37.937,55.141,37.937z M55.114,33.933
			c-0.153,0-0.277,0.072-0.381,0.219c-0.105,0.15-0.159,0.39-0.159,0.71c0,0.337,0.054,0.585,0.159,0.735
			c0.104,0.146,0.223,0.219,0.365,0.219c0.155,0,0.285-0.073,0.398-0.224c0.114-0.152,0.172-0.391,0.172-0.709
			c0-0.327-0.056-0.571-0.166-0.726C55.395,34.006,55.268,33.933,55.114,33.933z"/>
	</g>
</g>
</svg>
