<?xml version="1.0" encoding="utf-8"?>
<svg version="1.1" xmlns="http://www.w3.org/2000/svg" xmlns:xlink="http://www.w3.org/1999/xlink" x="0px" y="0px"
	 viewBox="0 0 255 277" enable-background="new 0 0 255 277" xml:space="preserve">
<path fill="#090204" d="M247.5,176.1c-1.4-3.5,1.4-1.6,2.9,1.1c1.7-6.3-2.5-14-8.6-18.8c-5.8-4.6-14.1-6.8-20.9-6.1
	c-1.6,0.2-3,0.5-4.4,0.9c-2.4,0.7-0.5-2.7,4.6-3.8c-1.9-3.4-7.3-5.4-13.6-3.1c-9.5,3.4-18.5,15-18,24.1c0.1,2.3,0.8,4.4,2.3,6.1
	c1.5-4.6,4-8.6,6.8-11.1c2.3-2.1,3.9-1.9,2.7-0.2c-6.2,8.3-10.9,23.5-3.3,30.7c4.5,4.2,11,2.9,13.9,1c-1.3-0.9-2.7-1.8-4.4-2.4
	l1.3-3.3c5.1,2,8.8,5.3,10.2,9.2l-3.3,1.2c-0.2-0.7-0.6-1.3-1-2c-0.5,0.4-1.3,1-2.2,1.6c2.5,5,10.5,8.4,14.3,7.3
	c4.1-1.2,6.7-4.5,6.3-11.9c-0.3-5.5,2.7-0.6,3.1,2.8c0.1,1.2,0.1,2.3,0,3.4c5.2-2,7.3-9.4,6-17.1c-0.7-4.1,3-0.4,3.6,5.5
	C249.8,188.4,249.8,181.8,247.5,176.1L247.5,176.1z M157.4,160c-2.1-0.6-4.1-1.2-6.2-1.7l1-4.1c11,2.7,21.9,7.1,34,13.5
	c1-9,8.2-19.5,17-23.6c-10.9-5.4-25.2-10.5-39-13.7c-1.8-0.3-3.8,0.1-5.9,1c-7.6,3.1-16.5,14.6-20.7,21.4c-0.3,0.5-0.6,1-0.8,1.5
	c2.1,5.3,3.9,10.9,5,14.8c3.4-1.7,8.5-4.2,13-5.6C155.6,162.3,156.5,161.1,157.4,160L157.4,160z M151.6,168.5
	c-4.6,1.9-9.7,4.3-12.1,5.5c-1-4.2-2.9-10.2-5-15.9c-1.8,2.7-4,5.3-6.8,7.3c-11.7,8.6-26-0.6-21.7-13.7c2.1-6.5,6.7-10.8,12.2-14.1
	c-4-2.3-10.9-5.6-15.4-7.1c-7.6,6-14.5,13.8-18.7,16.2c-2.4,1.4-8.7,3.9-13.5-0.6c-2.8,3.4-5.6,10.9-5.7,15.6
	c0.1,0.1,0.1,0.1,0.2,0.2c6.7-5.3,14.8-7.6,22.7-6.1c7,1.3,17.1,6.1,25.3,21.7l-3.8,2c-5.9-11.2-13.6-17.9-22.3-19.5
	c-6.8-1.3-14,0.8-19.8,5.7c1,3.2,0.3,5.5-0.6,3.8c-2.3-4.2-6.9-7.4-9.8-6.8c7.1,17.4,9.5,45.8,6.2,57.5c2.6-0.4,5.5-2.5,6.3-6.5
	c4.4-2,8.5-3.9,12.7-6.5c7.6,8.7,25.1,19.8,45.2,9.9c13-6.4,18.2-19.3,18.6-37.1C147.1,176.7,149.2,172.5,151.6,168.5L151.6,168.5z
	 M165.3,200.3c4.5,4.2,7.6,11,10.9,18.5c5.3,11.7,7.7,19.7,8.4,26.5c0.9,8.5-0.5,15.3-3.3,20.4c6.6-2,8-12,6.9-19.9
	c-1.2-8.9-3.8-17-10.7-27.4c0,0,1.7-0.8,2.2-1.2c-2-8.7-5.1-14.4-9-16.3C169.2,200.1,167.2,199.9,165.3,200.3L165.3,200.3z
	 M181.6,245.5c-0.6-6.4-2.8-14.1-8-25.6c-4.8-10.7-8.5-18.1-14.7-20.3c-4.6-1.3-9.8,0.8-12.2,3.7c4.3-0.6,8.8,1.9,12.9,8.9
	c3.3,5.7,10.2,27.5-1.8,38.8c-3.3,3.1-8.2,4.2-12.9,3.3c1,8.5,6.9,16.5,15,17.9C170.7,274.1,183.5,266.2,181.6,245.5L181.6,245.5z
	 M144.5,245.1c3.5-1.3,4.6-0.4-1.7,4.2c4.1,2.1,9.1,1.9,12.5-1.1c10-9,4.6-29.5,1.7-34.4c-4.7-8.1-9.6-8.9-13.9-5.5
	c-4.4,7-10,10.9-14.1,12.9c-9.1,4.5-19,5.4-28.3,3c2.9,8.1,6.8,15.7,13.3,20.5C121,249.8,131.5,249.9,144.5,245.1L144.5,245.1z
	 M59.2,220.3c4.7-13.7,0.8-50.3-10.7-64c-8.9-10.7-27.1-10.6-35.2-0.6c2.8-0.5,5.7-0.4,8.6,0.5c9.2,2.8,15,10.4,18.2,18.6
	c2.9,7.3,5.5,16.8,6.3,30.5c3.2,6.7,4,17.1,2.6,23C53.8,227.7,57.6,225.2,59.2,220.3L59.2,220.3z M45.5,229.1
	c2.1-3.5,2.1-14.5-1.3-22.9c-1.4-14.7-3.2-21.4-6.8-30.5c-2.9-7.4-8.2-14.2-16.3-16.7c-3.9-1.2-8.3-1.3-11.3,1.1
	c-7.1,5.5-7.3,16.1-4.7,24.6c2.3,8.6,6.6,17.1,12.3,24.7c3.7-2.4,12.8-2.1,16.8-1.5c1.6,0.4,2.3,1.3,0.5,1.4
	c-4.2,0.1-12.1,1.1-16.4,1.8c-0.3,4.2,3.7,13.3,8.4,18.2c2.8,2.7,5.6,3.8,8,3.4c4.4-0.7,7-11.1,2.7-23.6c-0.8-12-3.5-21.6-5.9-27.9
	c-3.8-9.9-11.4-15.7-16.1-16c-4-0.3-5.7,0.5-7.7,2.7c-0.7,0.8-1.1-0.5,0.3-2.4c1.8-2.3,3.8-2.9,7.8-2.7c6.6,0.4,14.2,6.4,18.2,17.7
	c2.5,6.8,4.7,13.9,5.7,28c4.6,10.9,3.1,21.4-1.3,24.9C41.3,233.1,44,231.7,45.5,229.1L45.5,229.1z M68.8,142.1
	c-0.4-4.1,2.8-7.6,4.9-9.9c0.4-0.5,0.9-0.9,1.4-1.3c1.1-1.5,2.5-3,4.2-4.2c2.1-1.5,4.2-2.6,6.2-3.1c3.8-2,7.7-3.7,11.8-5
	c-4.9,0-9.8,0.4-13.7,1.2c-1.3,3.8-5.2,6.6-8.3,8.2c-8.2,4.2-19.4,5.2-28,1.9c-0.5,3.7,0.4,6.9,2.7,9.2
	C53.6,142.8,60.2,143.9,68.8,142.1L68.8,142.1z M47.2,126.1c7.3,3.4,19.9,2.2,26.5-1.2c3.7-1.9,7.3-4.7,7.5-7.9c-1,0.5-2,0.9-3,1.2
	c-6.5,1.8-12,0.2-7.7-1c5.2-1.5,11.9-3.7,17.3-9.2c5.5-5.6,3.4-13.9-3.6-13.3c-7.2,0.6-15.1,5.3-16.1,10.2
	c-0.7,3.4,3.5,7.9,14.1,2.2c2.5-1.4,1.3,2.4-3,4.6c-1.2,0.6-3.8,1.3-5.9,1.4c-2.2,0.2-4.9-0.9-6.7-2.7c-0.2,0.1-0.4,0.3-0.7,0.4
	c-1.9,1.1-4,1.1-6,0.5c-0.3,1.3-0.8,2.6-1.7,3.8c-4.3,5.7-12.6,1.5-15.2-4.7c-1.5-3.7-0.3-4.2,1-2.4c4.5,6.2,8.8,8,11.7,5
	c3.3-3.4-1.6-12.2-4.1-15.8c-1.4-2-0.2-3.1,3.3,0.3c1.9,1.9,5,6.3,5.3,10.9c1.7,0.7,3.4,0.4,4.8-0.6c-0.4-1-0.5-2.2-0.2-3.4
	c0.4-1.8,1.3-3.5,2.5-5c-0.5-3.7-2-7.2-4.8-11.6c-1.1-1.8,1.7-1.9,4.9,2.8c1.8,2.6,2.5,4.7,2.8,6c2.2-1.7,4.7-3.1,7.1-4.1
	c-0.6-3.4-2.1-6.7-4.7-10.7c-1.1-1.8,1.7-1.9,4.9,2.8c2.4,3.4,2.9,5.9,3,6.9c1.5-0.4,2.8-0.5,3.7-0.5c0.9,0,1.7,0.2,2.5,0.3
	c0.5-6.9-4-14.4-12.7-16.4c-10.7-2.5-26.1,5.8-32.8,18.7c-6,11.5-2.8,23.3,12,26.4c2.6,0.5,1.6,2-3.3,1.6c-3.2-0.3-6-1.5-7.7-2.6
	C41.5,121.5,43.7,124.5,47.2,126.1L47.2,126.1z M139.1,104.3c-5.1,2.5-15.2,3.4-22,3c0.4,1.8,1.3,2.8,4.4,3
	c5.4,0.3,14.1-1.4,17.5-3.4C139,106.1,139.1,105.2,139.1,104.3L139.1,104.3z M129.6,122.1c3.9-0.7,7.5-5.2,8.9-12.2
	c-3.9,1.6-10.1,2.9-15.1,3c-1.5,1.7-2,3.7-1.4,5.8C124.6,121.6,127.3,122.6,129.6,122.1L129.6,122.1z M114,118.9
	c4.8,12,16.8,17.4,32.9,7.2c10.6,0.9,21.4-0.9,27.6-6.7c9.2,8.2,27.9,6.1,31.9-6.9c3-9.7-2.2-14.9-6.7-16.2c-6.9-2-13.3,1.7-17,5.5
	c-2.7,2.7-7.2,8.3-12.5,6.2c-3.6-1.5-5.9-6.4-2.7-11.4c-1.8-1.4-2.4-4.4-1.6-6.6c1.1-2.9,4.1-4.5,9.9-4.8c4.7-0.2,9.1-1.7,11-4.8
	c-0.2-0.7-0.4-1.4-0.6-2.2c-8.3-0.8-12.5-4.8-15.9-10.5c-0.2,0.3-0.4,0.6-0.6,0.8c-0.6,0.7-0.9,0.7-0.8-0.3c0.7-11.4-5.3-15.1-16-13
	c-1.1,0.2-1.3-0.1-0.5-0.9c1.9-2.1,4.4-3.9,7.1-5.1c-5-2.7-10.8-5-16.3-6.6c-0.2,2.1-0.8,4.4-1.8,6.6c-0.4,0.9-0.7,1-0.8-0.1
	c-1.1-8.3-4.4-8.9-8.8-5.4c-3.6,4-7.1,8.9-9.4,12.9c0.2,0.2,0.4,0.3,0.6,0.5c0.4-0.8,0.8-1.6,1.3-2.3c2.6-4.1,5.9-6.8,8.7-7.2
	c1.5-0.2,2.8,0.1,3.8,1c1.1,0.9,1.5,2.2,1.5,3.8c0,3.1-1.7,7.2-4,10.8c-0.9,1.4-1.9,2.7-2.9,3.8c0.8,1.5,1.5,3.1,1.9,4.7l-3.6,1
	c-2.4-7.9-9.5-14.4-17.5-15.9c-17.8-3.3-26.1,22.7-5.5,30.1c8.7,3.1,17,2.4,23.8-2.3l2.2,3.1c-0.5,0.4-1,0.7-1.5,1
	c8.5,1.8,15.1,1.3,24.3-2.2c0.6-0.2,0.7-0.1,0.8,0.4c1.6,11.1-5.7,15.8-12.9,12.3c-0.4,1.1-1.1,2.1-2,2.9
	c0.4,13.1-5.4,21.2-11.5,22.3c-6.9,1.3-13-5.3-16.6-17.6c-1-0.2-1.9-0.7-2.4-1.1c-1.7-1.4-1.3-3.3-0.3-2.6c1.1,0.8,2.4,1,3.7,1.3
	c4.5,0.8,12.2,0.5,18-0.7c-1.6-0.5-3.1-1.3-4.4-2.5c-1.9,4.9-11,4.4-14.5-1c-3.8,3.9-9.9,1.8-10.4-3c-1,0.8-2,1-2.9,0.9
	C99.8,106.2,104.3,113.7,114,118.9L114,118.9z M135.6,50.3c-0.6-0.5-1.4-0.7-2.3-0.6c-2.3,0.4-5.1,2.8-7.4,6.3
	c-0.5,0.8-1,1.7-1.4,2.5c0.4,0.3,0.8,0.7,1.2,1.1c0.3-0.5,0.5-1,0.9-1.5c2-3.2,4.4-5.3,6.5-5.6c0.9-0.1,1.7,0.1,2.4,0.6
	c0.4,0.3,0.6,0.7,0.7,1.1C136.6,52.4,136.4,51,135.6,50.3L135.6,50.3z M134.9,53.9c-0.4-0.3-0.9-0.5-1.6-0.4c-1.7,0.3-4,2.3-5.8,5.2
	c-0.4,0.6-0.7,1.1-1,1.7c0.3,0.4,0.7,0.7,1,1.1c0.2-0.5,0.5-1,0.8-1.5c1.9-3,4.4-4.6,6-3.3c0.3,0.3,0.5,0.7,0.6,1.3
	C135.6,56,135.6,54.5,134.9,53.9L134.9,53.9z M133.2,58.2c-0.5-0.4-1.3,0-1.8,0.8s-0.5,1.8,0,2.2s1.3,0,1.8-0.8
	C133.6,59.6,133.6,58.6,133.2,58.2L133.2,58.2z M123.8,48.7c2.7-3.7,5.8-7.4,8.8-10.3c2.4-3.1,5.2-4.4,7.9-3.3
	c1.4,0.6,2.2,2.1,2.5,4c5.2,1.4,10.7,3.4,15.6,5.9c-9-13.9-16.9-20.8-27.9-25.8c-7-3.2,1.9-2.9,10.4,2.3c4.6,2.8,13.4,9.9,21.2,22.5
	c0.8,1.2,1.5,2.5,2.2,3.8c2.5-0.3,4.8,0.1,6.6,1.4c4.2,3,4.4,9.3,1.5,15.1c3.1,5.5,6.9,9.8,12.5,10.5c-9.5-28.8-25.9-45-32.9-50.7
	c-8-6.4-12.3-9.1-17-10.7c-17.7-6-25,4.4-20.6,18.5C116.4,37.8,119.9,43.6,123.8,48.7L123.8,48.7z M169.7,36.3
	c1.5,2,2.9,4.1,4.4,6.4c2.5-1.3,4.6-3.2,5.9-5.6c2.6-4.8,3.1-10.8,1.5-15.6c-1.3-3.8-4-6.7-7.7-8.3c-6.8-2.9-14.9-0.1-19.6,6.7
	c0.3,0.3,0.6,0.5,1,0.8l0.1,0.1c1.8-1.6,6.6-5.4,9.5-7.3c0.3,3.8,0.5,6.3,0.6,8c2.6-1.1,7.3-3.5,11.2-4.8c-0.2,5-1.4,17.4-1.6,19.9
	C173.9,36.5,171.6,36.4,169.7,36.3L169.7,36.3z M168.7,35c0.9-3.6,2.5-10.4,2.9-12.8c-2.3,0.9-6.5,2.5-8.6,3.5
	c-0.2-1.8-0.4-4.3-0.7-6.7c-0.8,0.9-3.1,3-4.3,4.3C160.8,25.8,164.6,29.7,168.7,35L168.7,35z M171.5,104.1c2.9,1.1,5.6-0.9,9.2-4.3
	c2.1-1.9,5.1-4.7,9.1-6.2c-0.6-3.2-1.2-6.2-2-9.2c-2.5,2.2-6.3,3.5-11.8,4.2c-4.2,0.5-6.2,0.8-6.8,2.8c-0.6,2.2,0.5,3.6,2.2,4.3l0,0
	l0,0C168.3,98.5,168.6,103,171.5,104.1L171.5,104.1z M148.5,15.8c1.2,0.8,2.4,1.7,3.7,2.6c5.5-7.7,14.8-10.8,22.6-7.4
	c4.3,1.9,7.5,5.2,9,9.7c1.9,5.4,1.3,12.2-1.6,17.6c-1.5,2.8-3.9,5.1-6.7,6.6c7.2,11.6,14.2,27.5,17.7,47.9c2.2-0.3,4.7-0.2,7.4,0.7
	c3.9,1.3,7.9,5,9.3,10.4c3.9-2,6.4-5.8,6.9-10.5c0.6-6.3-2.3-12.3-7.6-15.9c-1.9,5-3.6,6.2-2.8,1.6c4-22.1,1.5-43.5-8-57.7
	c-6.7-10-13.5-14.8-23.5-15.8C165.4,4.6,154.9,9,148.5,15.8L148.5,15.8z M106.2,128.1c5.4,2.1,12.4,5.6,15.5,7.6
	c0.8-0.4,1.6-0.8,2.5-1.2c-4.9-1.6-8.9-5.1-11.9-9.9C110.2,125.6,108.2,126.8,106.2,128.1L106.2,128.1z M82.4,143.9
	c4.1-2,17.9-17.2,28.5-21.6c0-0.1-0.1-0.2-0.1-0.3c-1.1-0.8-2.2-1.6-3.2-2.4c-5.2,0.4-10.6,2.1-15.7,4.4c0.5,0.3,1,0.7,1.3,1.2
	c0.6,0.8,0.9,1.9,0.9,3c0,0.3,0,0.6-0.1,0.9c-0.4,3-2.8,6.4-6.3,9c-3.4,2.6-7.4,3.9-10.4,3.5c-1.5-0.2-2.8-0.9-3.5-1.9
	c-0.4-0.5-0.7-1.1-0.8-1.8C70.1,142.8,74.9,147.6,82.4,143.9L82.4,143.9z M80.8,128.7c-2.9,2.2-5,5-5.3,7.3c-0.1,0.9,0,1.6,0.4,2.1
	s1,0.8,1.9,1c2.3,0.3,5.6-0.9,8.5-3c2.9-2.2,5-5,5.3-7.3c0.1-0.9,0-1.6-0.4-2.1C89.9,125,85.3,125.4,80.8,128.7L80.8,128.7z
	 M111.8,153.1c0.1,1.8,0.7,3.3,1.8,4.4c2.8,2.7,7.9,1.9,11.3-1.7c1.9-2,2.9-4.5,2.9-6.8c0-1.8-0.6-3.4-1.8-4.6
	c-1.2-1.1-2.7-1.6-4.5-1.6c-2.4,0.1-4.9,1.3-6.8,3.3C112.7,148.1,111.7,150.6,111.8,153.1L111.8,153.1z M154,130.5
	c-2.3,0.1-4.4,0-6.2-0.1c-7.2,4.2-13.7,5.7-19.4,5.1c-3.3,1.4-6.7,3.1-9.8,5.2c0.9-0.3,1.8-0.4,2.7-0.5c2.4-0.1,4.6,0.7,6.3,2.3
	c3.8,3.6,3.4,10.3-0.9,14.9c-4.3,4.6-11,5.4-14.8,1.8c-1.6-1.5-2.6-3.7-2.6-6.1c0-0.6,0-1.2,0.1-1.8c-0.1,0.3-0.2,0.7-0.3,1
	c-2.8,10.6,7.6,16.5,16.4,10c4.8-3.6,6.4-6.8,9.1-11.4C138.3,145.1,146.2,135.3,154,130.5L154,130.5z M179.1,126.7
	c-1.5-0.5-2.9-1.2-4.3-2c-1.6,1.1-3.2,2-5,2.7c2.8,0.7,5.6,1.5,8.4,2.4C179.4,129.1,179.8,127.8,179.1,126.7L179.1,126.7z
	 M252.1,183.5c0.4,4.8-1.1,10-6.4,13c-0.2,1.1-0.5,2.2-0.9,3.1c-1.7,4-5.6,7.1-10,7.8c-1.5,2.4-3.8,4.2-6.6,4.7
	c-5.1,1-13.8-0.6-18.7-9.3c-3.6,1.2-8.4,1.2-13.6-3.4c-5.5-4.9-6.4-12.4-4.9-19.4c-2.4-1.9-3.8-4.7-4.4-7.4
	c-8.8-4.8-16.7-8.4-24.5-11.1c-4.7,5.3-9.9,15-11.9,19.5c-0.1,6.2-0.9,11.5-2.2,16.1c4.1-2.3,9.6-2.5,15-0.3
	c3.4-1.2,6.7-1.1,9.7,0.4c5.1,2.6,8.9,9.2,11.2,19.7c0.3,1.4-0.2,2.6-1.3,3.4c3.9,6.6,7.5,14.5,9.2,24.9c2.1,13-1.9,24.8-13.8,25
	c-4.7,4.8-11.4,6.8-18.5,5.7c-10.6-1.6-18.2-12.6-18.8-23c-1-0.5-1.8-1-2.7-1.7c-9,2.3-18.4,2.2-26.3-3.1
	c-8.4-5.6-13.1-16.2-16.5-25.8c-5.2-2.2-10.1-5.4-14.4-9.6c-2.6,1.7-5.3,3.2-8.1,4.6c-2.1,5.2-7.1,8.2-11.7,7.8
	c-2.9,4.8-8.7,7.4-14,7.6c-5.7,6.9-17.1,5.8-22.8-0.4c-5.7-5.9-9.7-15.1-9.7-21.7c-5.5-6-10.2-14.9-13.1-24.8
	c-2.4-8.9-2.4-21.2,5.8-27.6c8.2-17.3,34.2-18.1,44.7-4.1c1,1.3,1.9,2.7,2.7,4.3c2.3-0.6,4.4-0.3,6.3,0.5c0.6-3.8,2.1-8.3,4.1-11.9
	c-7.9,0.8-14.2-0.9-18.1-4.9c-3.5-3.6-4.7-8.8-3.6-14.4c-3.4-2.7-5.6-7.1-3.7-11.1c-6.3-6.6-6.5-16-1.9-24.7
	c7.5-14.2,24.7-24,37.1-21.1c12.4,3,17.1,14.1,15.9,22.1c5.8,3.8,4.8,12.2-0.4,17.5c-1.7,1.8-4.1,3.7-6.6,5.2c0,0.2,0.1,0.3,0.1,0.5
	c5.5-1,12.6-1.3,18.9-0.8c-5-5.6-7.4-12.1-6.2-19.4c-0.8-1.4-1.2-3.3-0.6-5c-3.2-0.4-5.4-3.7-2.6-8.7c-8.2-13,1.6-32.4,19.8-29.2
	c2.1,0.4,4.2,1.2,6.3,2.3c0.6-1.1,1.3-2.2,2.1-3.3c-4.4-5.5-8.9-13.1-10.7-18.7c-5-14.9,3-31.3,25.7-23.6c2.4,0.8,5.5,2.3,8.8,4.4
	c7.2-8.3,18.8-13.7,29.9-12.9c10.1,0.7,19.9,6.9,27.4,17.7c7.4,10,11.4,31.1,9.5,46.2c-0.4,3.1-1,5.9-1.6,8.3
	c7.1,4.3,11.2,12.2,10.4,20.3c-0.7,6.7-4.5,11.9-10.4,14.3c0,1.8-0.3,3.6-0.8,5.6c-3.3,11.1-15.2,16-26,14.3
	c0.1,1.2-0.2,2.4-0.9,3.3c9.8,3.2,19,7.1,26.5,11.2c7.1-1.1,13.5,1.1,15.3,6.7c6.2-0.1,13.2,1.7,19.6,6.5
	C251.1,160.8,258.6,172.8,252.1,183.5L252.1,183.5z M82,136.7c2.7-0.5,5.5-2.3,6.2-5.8c0.2-1.1-0.2-1.9-1-0.5
	c-1.4,2.9-3.5,4.4-6.3,5.3C79.5,136.3,80.4,137,82,136.7L82,136.7z M182.4,113.8c1.1-1.4,2.5-2.8,3.9-3.8c1.9-0.1,3.2,1.3,3.4,4.5
	c0.1,1.1,0.8,1.6,1.5-0.6c0.8-2.6-0.2-4.7-1.7-5.8c2.7-1,5.5-1,7.9,0.9c1,0.8,2.2,1.3,1.5-0.6c-0.3-0.9-1.4-2.2-3-3
	c-4.2-2.1-11.7-0.5-14.7,6.2C180,114.5,180.5,116.1,182.4,113.8L182.4,113.8z M119.4,155.5c3-0.4,6.3-3,6-7.2
	c-0.1-1.3-0.8-2.3-1.1-0.4c-0.7,3.6-3.3,5.8-6.2,6.7C116.4,155.1,117.5,155.8,119.4,155.5L119.4,155.5z M213.9,165.6
	c-0.8,0.3-1.4,3.5-0.8,5.5c0.5,1.9,1.7,3.2,3,2.9s2.2-1.6,1.6-3.9C217.2,167.7,214.6,165.4,213.9,165.6L213.9,165.6z M229,156.9
	c-2.1-1-5.3-0.5-5.5,0.1c-0.2,0.7,1.8,3,3.6,3.7c1.7,0.7,3.3,0.7,3.8-0.4C231.5,159.2,231,157.8,229,156.9L229,156.9z M218.6,160.9
	c-0.5,0.7,0.8,3.8,2.4,5.2c1.5,1.3,3.2,1.9,4.2,0.9s0.9-2.6-0.8-4.3C222.5,161,219,160.3,218.6,160.9L218.6,160.9z M147.4,83.5
	c-0.8-0.6-1.4-1.6-1.7-2.7c-0.6-2.7,0.4-6.4,2.7-10c3.5-5.4,8.4-7.8,11.6-5.8c0.7,0.4,1.2,1.1,1.4,1.9c0.1-1,0.1-1.9-0.1-2.8
	c-0.3-1.3-0.9-2.2-1.9-2.9c-4.2-2.6-10.2,0-14.2,6.2c-2.5,3.9-3.6,8.2-2.9,11.4c0.4,1.8,1.3,3.1,2.7,4
	C145.7,83.3,146.5,83.5,147.4,83.5L147.4,83.5z M157.5,71.2c-0.7-0.5-1.8-0.1-2.4,0.8c-0.6,0.9-0.6,2.1,0.1,2.5
	c0.7,0.5,1.8,0.1,2.4-0.8C158.3,72.8,158.2,71.7,157.5,71.2L157.5,71.2z M149.3,83.2c0.8-0.2,1.5-0.6,2.3-1.1
	c-0.3-0.1-0.5-0.1-0.7-0.3c-2.2-1.4-1.7-5.3,0.5-8.8c2.3-3.5,5.6-5.4,7.9-3.9c0.6,0.4,0.9,1,1,1.7c0.3-1.3,0.4-2.4,0.2-3.3
	c-0.2-0.8-0.5-1.3-1.1-1.7c-2.8-1.7-7.1,0.6-10.2,5.5c-2.1,3.3-3.1,6.8-2.6,9.2c0.2,1.1,0.7,1.8,1.5,2.3
	C148.5,83.1,148.9,83.2,149.3,83.2L149.3,83.2z M159.9,76.9c-4.7,7.3-11.6,10.7-16.1,7.9c-1.9-1.2-3.1-3.1-3.7-5.4
	c-0.8-3.8,0.4-8.7,3.2-13.1c4.7-7.3,12-10.2,17.3-6.9c1.5,0.9,2.5,2.4,2.9,4.3C164.4,67.2,163,72.1,159.9,76.9L159.9,76.9z"/>
</svg>