<svg xmlns="http://www.w3.org/2000/svg" xmlns:xlink="http://www.w3.org/1999/xlink" width="383" height="120" viewBox="0 0 383 120">
  <defs>
    <path id="txt-find-b" d="M317.32,475.704 L315.304,440.856 L345.4,443.592 L347.128,413.928 L314.008,418.248 L313.144,404.136 L357.064,403.272 L357.208,367.56 L267.352,378.648 L282.904,479.16 L317.32,475.704 Z M395.944,475.992 L412.072,392.76 L371.32,384.12 L366.136,478.44 L395.944,475.992 Z M527.704,469.08 L527.992,371.448 L486.952,375.048 L491.56,426.888 L454.984,375.336 L417.832,387.432 L433.384,482.04 L467.8,479.16 L463.192,436.536 L498.04,478.872 L527.704,469.08 Z M614.536,476.28 L553.336,481.608 L539.512,383.256 L592.936,370.872 L645.496,400.68 L641.32,448.056 L614.536,476.28 Z M605.608,446.184 L611.224,416.952 L581.416,405.72 L585.592,453.96 L605.608,446.184 Z"/>
    <filter id="txt-find-a" width="102.1%" height="107%" x="-.5%" y="-1.7%" filterUnits="objectBoundingBox">
      <feOffset dx="4" dy="4" in="SourceAlpha" result="shadowOffsetOuter1"/>
      <feColorMatrix in="shadowOffsetOuter1" values="0 0 0 0 0   0 0 0 0 0   0 0 0 0 0  0 0 0 0.3 0"/>
    </filter>
  </defs>
  <g fill="none" fill-rule="evenodd" transform="translate(-267 -367)">
    <use fill="#000" filter="url(#txt-find-a)" xlink:href="#txt-find-b"/>
    <use fill="#FFF" xlink:href="#txt-find-b"/>
  </g>
</svg>
