<svg xmlns="http://www.w3.org/2000/svg" xmlns:xlink="http://www.w3.org/1999/xlink" width="395" height="405" viewBox="0 0 395 405">
  <defs>
    <path id="txt-save-b" d="M323.704,278.704 L272.152,283.744 L237.448,261.136 L253.144,235.216 L286.12,255.664 L294.76,243.136 L238.888,216.352 L259.336,180.496 L303.976,172.72 L338.536,190.144 L323.848,217.936 L294.184,199.648 L287.128,211.312 L344.296,239.248 L323.704,278.704 Z M443.54,279.424 L406.964,283.312 L402.788,261.136 L377.588,263.584 L373.7,282.736 L339.14,275.392 L366.932,184.816 L416.756,191.872 L443.54,279.424 Z M398.756,239.104 L394.148,215.776 L387.524,214.912 L382.916,237.376 L398.756,239.104 Z M513.408,278.992 L471.216,282.592 L426,198.928 L468.192,176.608 L490.368,243.28 L501.312,185.968 L541.776,192.304 L513.408,278.992 Z M622.444,282.592 L549.292,278.848 L537.772,242.992 L551.02,184.24 L627.916,195.184 L622.156,223.984 L582.988,213.76 L578.956,225.28 L611.5,226.576 L606.46,250.048 L577.516,245.728 L579.532,257.536 L618.7,254.08 L622.444,282.592 Z M322.264,422.848 L310.168,356.896 L346.312,351.424 L343.576,319.456 L238.888,324.928 L242.632,367.12 L279.928,361.504 L280.792,426.448 L322.264,422.848 Z M455.348,423.28 L456.212,321.184 L414.596,323.488 L418.34,360.352 L393.86,360.352 L389.108,321.184 L347.924,328.384 L369.524,429.184 L401.636,423.856 L397.748,392.464 L421.076,386.848 L424.964,425.584 L455.348,423.28 Z M544.224,426.592 L540.48,398.08 L501.312,401.536 L499.296,389.728 L528.24,394.048 L533.28,370.576 L500.736,369.28 L504.768,357.76 L543.936,367.984 L549.696,339.184 L472.8,328.24 L459.552,386.992 L471.072,422.848 L544.224,426.592 Z M313.192,567.28 L251.992,572.608 L238.168,474.256 L291.592,461.872 L344.152,491.68 L339.976,539.056 L313.192,567.28 Z M304.264,537.184 L309.88,507.952 L280.072,496.72 L284.248,544.96 L304.264,537.184 Z M442.676,567.424 L406.1,571.312 L401.924,549.136 L376.724,551.584 L372.836,570.736 L338.276,563.392 L366.068,472.816 L415.892,479.872 L442.676,567.424 Z M397.892,527.104 L393.284,503.776 L386.66,502.912 L382.052,525.376 L397.892,527.104 Z M498,569.584 L455.808,567.136 L462.864,534.016 L421.968,473.824 L467.04,459.28 L482.016,506.224 L507.504,466.192 L542.352,485.776 L494.976,535.6 L498,569.584 Z M580.396,530.704 L592.204,471.232 L550.156,463.024 L552.172,529.12 L580.396,530.704 Z M579.676,568 L579.388,541.792 L550.876,539.344 L546.124,565.12 L579.676,568 Z"/>
    <filter id="txt-save-a" width="102%" height="102%" x="-.5%" y="-.5%" filterUnits="objectBoundingBox">
      <feOffset dx="4" dy="4" in="SourceAlpha" result="shadowOffsetOuter1"/>
      <feColorMatrix in="shadowOffsetOuter1" values="0 0 0 0 0   0 0 0 0 0   0 0 0 0 0  0 0 0 0.3 0"/>
    </filter>
  </defs>
  <g fill="none" fill-rule="evenodd" transform="translate(-237 -172)">
    <use fill="#000" filter="url(#txt-save-a)" xlink:href="#txt-save-b"/>
    <use fill="#FFF" xlink:href="#txt-save-b"/>
  </g>
</svg>
