<svg xmlns="http://www.w3.org/2000/svg" xmlns:xlink="http://www.w3.org/1999/xlink" width="463" height="122" viewBox="0 0 463 122">
  <defs>
    <path id="txt-jump-b" d="M877.232,457.848 L876.08,377.064 L830.288,374.184 L842.96,443.016 L822.224,454.536 L817.472,424.872 L779.456,442.008 L798.608,475.848 L841.664,485.352 L877.232,457.848 Z M965.936,477 L985.664,453.24 L993.44,403.416 L954.704,396.216 L952.112,444.744 L928.496,448.632 L936.992,385.992 L893.072,382.248 L888.896,456.264 L912.656,477 L965.936,477 Z M1129.232,479.736 L1116.128,382.104 L1090.064,378.504 L1072.64,405.576 L1063.712,374.76 L1036.496,370.872 L999.488,460.008 L1036.496,477 L1052.048,425.88 L1067.024,451.224 L1088.48,430.776 L1088.768,483.192 L1129.232,479.736 Z M1230.032,430.92 L1206.848,449.64 L1179.632,446.616 L1180.064,476.136 L1146.656,478.44 L1138.448,376.632 L1199.792,368.136 L1237.952,394.632 L1230.032,430.92 Z M1197.776,424.008 L1201.664,403.128 L1178.912,396.072 L1179.344,426.6 L1197.776,424.008 Z"/>
    <filter id="txt-jump-a" width="101.7%" height="106.8%" x="-.4%" y="-1.7%" filterUnits="objectBoundingBox">
      <feOffset dx="4" dy="4" in="SourceAlpha" result="shadowOffsetOuter1"/>
      <feColorMatrix in="shadowOffsetOuter1" values="0 0 0 0 0   0 0 0 0 0   0 0 0 0 0  0 0 0 0.3 0"/>
    </filter>
  </defs>
  <g fill="none" fill-rule="evenodd" transform="translate(-779 -368)">
    <use fill="#000" filter="url(#txt-jump-a)" xlink:href="#txt-jump-b"/>
    <use fill="#FFF" xlink:href="#txt-jump-b"/>
  </g>
</svg>
