<svg xmlns="http://www.w3.org/2000/svg" xmlns:xlink="http://www.w3.org/1999/xlink" width="339" height="119" viewBox="0 0 339 119">
  <defs>
    <path id="txt-run-b" d="M460.14,464.472 L422.268,481.752 L396.06,444.456 L396.492,476.136 L363.084,478.44 L354.876,376.632 L416.22,368.136 L454.38,394.632 L446.46,427.608 L429.324,439.272 L460.14,464.472 Z M414.204,422.568 L417.948,403.128 L395.196,396.072 L395.772,426.456 L414.204,422.568 Z M543.372,477 L563.1,453.24 L570.876,403.416 L532.14,396.216 L529.548,444.744 L505.932,448.632 L514.428,385.992 L470.508,382.248 L466.332,456.264 L490.092,477 L543.372,477 Z M687.948,469.08 L688.236,371.448 L647.196,375.048 L651.804,426.888 L615.228,375.336 L578.076,387.432 L593.628,482.04 L628.044,479.16 L623.436,436.536 L658.284,478.872 L687.948,469.08 Z"/>
    <filter id="txt-run-a" width="102.4%" height="107%" x="-.6%" y="-1.8%" filterUnits="objectBoundingBox">
      <feOffset dx="4" dy="4" in="SourceAlpha" result="shadowOffsetOuter1"/>
      <feColorMatrix in="shadowOffsetOuter1" values="0 0 0 0 0   0 0 0 0 0   0 0 0 0 0  0 0 0 0.3 0"/>
    </filter>
  </defs>
  <g fill="none" fill-rule="evenodd" transform="translate(-354 -368)">
    <use fill="#000" filter="url(#txt-run-a)" xlink:href="#txt-run-b"/>
    <use fill="#FFF" xlink:href="#txt-run-b"/>
  </g>
</svg>
