<svg xmlns="http://www.w3.org/2000/svg" xmlns:xlink="http://www.w3.org/1999/xlink" width="595" height="121" viewBox="0 0 595 121">
  <defs>
    <path id="txt-throw-b" d="M751.472,475.848 L739.376,409.896 L775.52,404.424 L772.784,372.456 L668.096,377.928 L671.84,420.12 L709.136,414.504 L710,479.448 L751.472,475.848 Z M887.696,476.28 L888.56,374.184 L846.944,376.488 L850.688,413.352 L826.208,413.352 L821.456,374.184 L780.272,381.384 L801.872,482.184 L833.984,476.856 L830.096,445.464 L853.424,439.848 L857.312,478.584 L887.696,476.28 Z M1005.056,464.472 L967.184,481.752 L940.976,444.456 L941.408,476.136 L908,478.44 L899.792,376.632 L961.136,368.136 L999.296,394.632 L991.376,427.608 L974.24,439.272 L1005.056,464.472 Z M959.12,422.568 L962.864,403.128 L940.112,396.072 L940.688,426.456 L959.12,422.568 Z M1106.576,466.344 L1063.952,484.92 L1018.304,468.648 L1008.512,419.256 L1041.344,381.96 L1084.688,387.864 L1112.912,416.952 L1106.576,466.344 Z M1083.104,437.544 L1070.288,414.504 L1045.232,422.712 L1045.664,446.616 L1065.536,454.536 L1083.104,437.544 Z M1232.432,477.288 L1258.208,397.944 L1219.472,387.72 L1207.664,436.824 L1192.256,410.472 L1172.096,434.088 L1167.2,371.304 L1120.112,378.936 L1139.696,472.824 L1174.544,476.856 L1188.656,453.096 L1198.592,479.592 L1232.432,477.288 Z"/>
    <filter id="txt-throw-a" width="101.4%" height="106.9%" x="-.3%" y="-1.7%" filterUnits="objectBoundingBox">
      <feOffset dx="4" dy="4" in="SourceAlpha" result="shadowOffsetOuter1"/>
      <feColorMatrix in="shadowOffsetOuter1" values="0 0 0 0 0   0 0 0 0 0   0 0 0 0 0  0 0 0 0.3 0"/>
    </filter>
  </defs>
  <g fill="none" fill-rule="evenodd" transform="translate(-668 -368)">
    <use fill="#000" filter="url(#txt-throw-a)" xlink:href="#txt-throw-b"/>
    <use fill="#FFF" xlink:href="#txt-throw-b"/>
  </g>
</svg>
